# xmcd
#
# Track frame offsets:
#	150
#	11213
#	20132
#	32084
#	44511
#	52016
#	65090
#	98487
#	113639
#	127342
#	134610
#	145652
#	155955
#
# Disc length: 2222 seconds
#
# Revision: 0
# Processed by: cddbd v1.4PL0 Copyright (c) Steve Scherf et al.
# Submitted via: EasyCDDAExtractor 4.6.0.1
#
DISCID=c708ac0d
DTITLE=Gasolean
DYEAR=1900
DGENRE=
TTITLE0=Rumblin' Train
TTITLE1=Travelin' Road
TTITLE2=Industrious Hick
TTITLE3=Jack of all trades
TTITLE4=American kid
TTITLE5=power laughs
TTITLE6=18 wheels
TTITLE7=thrill vulture
TTITLE8=folsom prison
TTITLE9=aye' chavela'
TTITLE10=give it the gas
TTITLE11=son of son
TTITLE12=fuck off
EXTD=
EXTT0=
EXTT1=
EXTT2=
EXTT3=
EXTT4=
EXTT5=
EXTT6=
EXTT7=
EXTT8=
EXTT9=
EXTT10=
EXTT11=
EXTT12=
PLAYORDER=
